<svg xmlns="http://www.w3.org/2000/svg" xmlns:xlink="http://www.w3.org/1999/xlink" width="500" zoomAndPan="magnify" viewBox="0 0 375 374.999991" height="500" preserveAspectRatio="xMidYMid meet" version="1.2"><defs><clipPath id="dcd4882bbc"><path d="M 36 51 L 338 51 L 338 339 L 36 339 Z M 36 51 "/></clipPath><clipPath id="153e14dd79"><path d="M 395.066406 126.941406 L 272.835938 371.050781 L -20.226562 224.304688 L 102.003906 -19.800781 Z M 395.066406 126.941406 "/></clipPath><clipPath id="f8b067c4b4"><path d="M 395.066406 126.941406 L 272.835938 371.050781 L -20.226562 224.304688 L 102.003906 -19.800781 Z M 395.066406 126.941406 "/></clipPath><clipPath id="81fe77b2f8"><path d="M 198.117188 316.984375 C 197.871094 312.847656 198.746094 308.902344 200.472656 305.4375 L 148.179688 261.894531 C 147.367188 262.566406 146.511719 263.207031 145.613281 263.800781 C 132.214844 272.632812 114.195312 268.933594 105.359375 255.539062 C 96.527344 242.144531 100.226562 224.121094 113.621094 215.289062 C 125.507812 207.449219 141.027344 209.484375 150.546875 219.394531 L 197.039062 188.738281 C 196.597656 187.3125 196.316406 185.816406 196.222656 184.257812 C 195.710938 175.636719 201.042969 168.019531 208.792969 165.261719 L 207.84375 149.304688 L 205.488281 109.671875 C 196.359375 108.546875 188.453125 103.152344 183.960938 95.445312 L 140.835938 110.851562 C 141.484375 113.578125 141.917969 116.386719 142.089844 119.277344 C 142.679688 129.164062 140.269531 138.535156 135.660156 146.515625 C 137.285156 147.492188 138.726562 148.820312 139.839844 150.507812 C 143.820312 156.542969 142.152344 164.664062 136.117188 168.644531 C 130.082031 172.625 121.960938 170.957031 117.980469 164.921875 C 117.878906 164.769531 117.796875 164.609375 117.703125 164.453125 C 111.363281 168.101562 104.109375 170.382812 96.308594 170.84375 C 89.328125 171.261719 82.609375 170.175781 76.449219 167.886719 L 59.488281 201.757812 C 59.78125 202.113281 60.0625 202.488281 60.320312 202.882812 C 64.300781 208.921875 62.636719 217.039062 56.597656 221.019531 C 50.5625 225 42.445312 223.332031 38.464844 217.296875 C 34.484375 211.261719 36.148438 203.140625 42.183594 199.160156 C 44.59375 197.574219 47.335938 196.886719 50.015625 197.015625 L 66.980469 163.136719 C 54.386719 154.996094 45.699219 141.179688 44.742188 125.0625 C 43.144531 98.183594 63.640625 75.09375 90.523438 73.496094 C 110.804688 72.289062 128.921875 83.667969 137.285156 100.871094 L 180.394531 85.46875 C 180.242188 84.515625 180.136719 83.550781 180.078125 82.566406 C 179.125 66.546875 191.339844 52.789062 207.359375 51.839844 C 223.378906 50.886719 237.132812 63.101562 238.085938 79.117188 C 238.929688 93.332031 229.410156 105.753906 216.066406 109.042969 L 219.367188 164.632812 C 227.390625 166.453125 233.585938 173.382812 234.101562 182.007812 C 234.191406 183.5625 234.089844 185.085938 233.824219 186.550781 L 283.621094 211.488281 C 288.570312 204.949219 296.234375 200.53125 305.0625 200.007812 C 305.292969 199.992188 305.523438 199.992188 305.753906 199.984375 L 317.734375 119.480469 C 316.210938 118.519531 314.863281 117.230469 313.808594 115.628906 C 309.828125 109.589844 311.492188 101.472656 317.53125 97.492188 C 323.566406 93.511719 331.683594 95.175781 335.664062 101.214844 C 339.644531 107.25 337.976562 115.371094 331.941406 119.351562 C 330.761719 120.128906 329.503906 120.6875 328.210938 121.042969 L 316.234375 201.53125 C 327.03125 205.25 335.070312 215.179688 335.792969 227.289062 C 336.742188 243.308594 324.53125 257.066406 308.511719 258.015625 C 292.492188 258.96875 278.734375 246.753906 277.78125 230.738281 C 277.582031 227.339844 277.976562 224.050781 278.867188 220.957031 L 229.074219 196.023438 C 225.867188 199.488281 221.375 201.769531 216.289062 202.074219 C 211.203125 202.375 206.472656 200.640625 202.875 197.582031 L 156.378906 228.242188 C 159.929688 236.621094 159.265625 246.058594 154.960938 253.753906 L 207.25 297.296875 C 210.722656 294.691406 214.96875 293.039062 219.625 292.761719 C 232.253906 292.011719 243.097656 301.640625 243.847656 314.269531 C 244.601562 326.898438 234.972656 337.742188 222.34375 338.492188 C 209.714844 339.242188 198.867188 329.613281 198.117188 316.984375 Z M 267.816406 92.601562 C 271.796875 98.636719 279.914062 100.300781 285.953125 96.320312 C 291.988281 92.34375 293.652344 84.222656 289.675781 78.1875 C 285.695312 72.152344 277.574219 70.484375 271.539062 74.464844 C 265.503906 78.445312 263.835938 86.5625 267.816406 92.601562 Z M 237.433594 242.40625 C 231.398438 246.386719 229.730469 254.503906 233.710938 260.542969 C 237.691406 266.578125 245.8125 268.242188 251.847656 264.261719 C 257.882812 260.28125 259.550781 252.164062 255.570312 246.128906 C 251.589844 240.089844 243.46875 238.425781 237.433594 242.40625 Z M 237.433594 242.40625 "/></clipPath></defs><g id="9118bf03cd"><rect x="0" width="375" y="0" height="374.999991" style="fill:#ffffff;fill-opacity:1;stroke:none;"/><rect x="0" width="375" y="0" height="374.999991" style="fill:#ffffff;fill-opacity:1;stroke:none;"/><g clip-rule="nonzero" clip-path="url(#dcd4882bbc)"><g clip-rule="nonzero" clip-path="url(#153e14dd79)"><g clip-rule="nonzero" clip-path="url(#f8b067c4b4)"><g clip-rule="nonzero" clip-path="url(#81fe77b2f8)"><path style=" stroke:none;fill-rule:nonzero;fill:#305407;fill-opacity:1;" d="M 455.085938 108.691406 L 95.65625 -71.285156 L -80.960938 281.4375 L 278.472656 461.414062 Z M 455.085938 108.691406 "/></g></g></g></g><g style="fill:#ffffff;fill-opacity:1;"><g transform="translate(54.372622, 147.619471)"><path style="stroke:none" d="M 4.03125 -16.234375 C 4.101562 -19.773438 4.925781 -22.734375 6.5 -25.109375 C 8.070312 -27.492188 10.300781 -29.378906 13.1875 -30.765625 C 16.070312 -32.148438 19.523438 -33.128906 23.546875 -33.703125 C 27.566406 -34.273438 32.054688 -34.515625 37.015625 -34.421875 C 41.984375 -34.335938 47.3125 -34.023438 53 -33.484375 C 53.03125 -34.703125 52.898438 -35.8125 52.609375 -36.8125 C 52.316406 -37.820312 51.703125 -38.710938 50.765625 -39.484375 C 49.835938 -40.253906 48.46875 -40.859375 46.65625 -41.296875 C 44.851562 -41.742188 42.429688 -42 39.390625 -42.0625 C 35.890625 -42.144531 32.679688 -42.035156 29.765625 -41.734375 C 26.859375 -41.429688 24.347656 -41.066406 22.234375 -40.640625 C 20.128906 -40.210938 18.503906 -39.820312 17.359375 -39.46875 C 16.222656 -39.125 15.65625 -38.953125 15.65625 -38.953125 L 9.90625 -50.0625 C 9.90625 -50.0625 10.570312 -50.316406 11.90625 -50.828125 C 13.25 -51.335938 15.222656 -51.914062 17.828125 -52.5625 C 20.429688 -53.207031 23.644531 -53.757812 27.46875 -54.21875 C 31.300781 -54.675781 35.71875 -54.851562 40.71875 -54.75 C 46.5625 -54.625 51.410156 -54.046875 55.265625 -53.015625 C 59.128906 -51.984375 62.160156 -50.503906 64.359375 -48.578125 C 66.554688 -46.660156 68.097656 -44.300781 68.984375 -41.5 C 69.867188 -38.695312 70.273438 -35.460938 70.203125 -31.796875 L 69.46875 1.515625 L 52.203125 1.140625 L 52.359375 -5.9375 C 51.296875 -4.320312 49.882812 -2.90625 48.125 -1.6875 C 46.375 -0.46875 44.125 0.460938 41.375 1.109375 C 38.632812 1.753906 35.238281 2.035156 31.1875 1.953125 C 27.300781 1.859375 23.695312 1.445312 20.375 0.71875 C 17.050781 0 14.15625 -1.070312 11.6875 -2.5 C 9.21875 -3.9375 7.304688 -5.789062 5.953125 -8.0625 C 4.597656 -10.332031 3.957031 -13.054688 4.03125 -16.234375 Z M 21.28125 -17.4375 C 21.25 -16.21875 21.648438 -15.148438 22.484375 -14.234375 C 23.328125 -13.316406 24.800781 -12.597656 26.90625 -12.078125 C 29.019531 -11.566406 31.941406 -11.273438 35.671875 -11.203125 C 39.660156 -11.109375 42.894531 -11.453125 45.375 -12.234375 C 47.851562 -13.023438 49.675781 -14.097656 50.84375 -15.453125 C 52.019531 -16.804688 52.625 -18.253906 52.65625 -19.796875 L 52.75 -23.9375 C 48.164062 -24.1875 43.957031 -24.332031 40.125 -24.375 C 36.289062 -24.425781 32.972656 -24.257812 30.171875 -23.875 C 27.367188 -23.5 25.195312 -22.804688 23.65625 -21.796875 C 22.113281 -20.785156 21.320312 -19.332031 21.28125 -17.4375 Z M 21.28125 -17.4375 "/></g></g></g></svg>